<?xml version="1.0" encoding="UTF-8"?>
<svg id="_レイヤー_2" data-name="レイヤー 2" xmlns="http://www.w3.org/2000/svg" viewBox="0 0 111.15 43.78">
  <defs>
    <style>
      .cls-1 {
        fill: #333;
      }
    </style>
  </defs>
  <g id="_メイン" data-name="メイン">
    <g id="_ヘッダー" data-name="ヘッダー">
      <g>
        <path class="cls-1" d="m8.9,3.12c-.99-.52-2.08-.87-3.33-.87-1.65,0-2.62.94-2.62,2.08,0,1.37,1.39,2.17,3,3.02,3.35,1.75,4.41,3.47,4.37,5.52-.07,2.9-2.31,4.39-5.26,4.37-2.41-.02-4.18-.85-5.05-1.58l1.11-1.91c.92.68,2.15,1.3,3.75,1.3,1.94,0,2.97-1.09,2.97-2.15,0-1.58-1.46-2.41-3.4-3.54C1.96,7.88.45,6.56.45,4.22.45,2.29,2.08,0,5.45,0c1.75,0,3.45.52,4.3,1.04l-.85,2.08Z"/>
        <path class="cls-1" d="m18.05.33h2.5v10.69c0,2.24,1.44,4.04,3.59,4.04s3.63-1.79,3.63-4.04V.33h2.48v10.79c0,3.14-1.98,6.11-6.14,6.11s-6.07-2.97-6.07-6.11V.33Z"/>
        <path class="cls-1" d="m49.13,16.9h-11.26l-.24-.35,8.1-14.14h-7.27V.33h10.86l.19.35-8.03,14.14h7.65v2.08Z"/>
        <path class="cls-1" d="m56.89.33h2.5v10.69c0,2.24,1.44,4.04,3.59,4.04s3.63-1.79,3.63-4.04V.33h2.48v10.79c0,3.14-1.98,6.11-6.14,6.11s-6.07-2.97-6.07-6.11V.33Z"/>
        <path class="cls-1" d="m77.73.33h2.5v7.13l6.23-7.13h2.9l-6.68,7.81,7.32,8.76h-3.21l-6.56-7.93v7.93h-2.5V.33Z"/>
        <path class="cls-1" d="m95.47,16.9L103.19.14h.33l7.62,16.76h-2.74l-1.49-3.38h-7.2l-1.49,3.38h-2.76Zm5.12-5.43h5.43l-2.69-6.3-2.74,6.3Z"/>
        <path class="cls-1" d="m1.01,26.95c10.9-1.65,13.48,4.37,13.48,8.24s-2.74,9.75-13.48,8.26v-16.5Zm2.5,14.35c4.18.45,8.31-1.53,8.31-6.14,0-3.85-2.9-6.77-8.31-6.11v12.25Z"/>
        <path class="cls-1" d="m33.26,41.38v2.08h-9.46v-16.57h9.16v2.1h-6.68v4.08h5.38v2.1h-5.38v6.21h6.99Z"/>
        <path class="cls-1" d="m50.86,29.67c-.99-.52-2.08-.87-3.33-.87-1.65,0-2.62.94-2.62,2.08,0,1.37,1.39,2.17,3,3.02,3.35,1.75,4.41,3.47,4.37,5.52-.07,2.9-2.31,4.39-5.26,4.37-2.41-.02-4.18-.85-5.05-1.58l1.11-1.91c.92.68,2.15,1.3,3.75,1.3,1.94,0,2.97-1.09,2.97-2.15,0-1.58-1.46-2.41-3.4-3.54-2.48-1.46-3.99-2.79-3.99-5.12,0-1.94,1.63-4.22,5-4.22,1.75,0,3.45.52,4.3,1.04l-.85,2.08Z"/>
        <path class="cls-1" d="m61.72,26.88h2.48v16.57h-2.48v-16.57Z"/>
        <path class="cls-1" d="m83.83,35.71h5.1v5.48c-2.15,2.08-4.37,2.6-6.61,2.6-5.41,0-8.95-3.87-8.95-8.64,0-5.03,4.04-8.59,8.69-8.59,3.23,0,5.12,1.32,6.35,2.43-.5.59-1.04,1.16-1.53,1.75-.99-.9-2.45-1.98-4.72-1.98-3.37,0-6.07,2.78-6.07,6.35,0,3.78,2.6,6.49,6.33,6.49,1.56,0,3.23-.64,4.08-1.35v-2.48h-2.67v-2.05Z"/>
        <path class="cls-1" d="m110.55,26.88v16.57h-2.41v-7.13l-7.2-5.12v12.25h-2.41v-16.62l.33-.14,9.28,6.68v-6.49h2.41Z"/>
      </g>
    </g>
  </g>
</svg>